<?xml version="1.0" encoding="utf-8"?>
<!-- Generator: Adobe Illustrator 24.3.0, SVG Export Plug-In . SVG Version: 6.00 Build 0)  -->
<svg version="1.1" id="Layer_1" xmlns="http://www.w3.org/2000/svg" xmlns:xlink="http://www.w3.org/1999/xlink" x="0px" y="0px"
	 viewBox="0 0 448 147.7" style="enable-background:new 0 0 448 147.7;" xml:space="preserve">
<style type="text/css">
	.st0{fill:none;stroke:#FFFFFF;stroke-width:5;stroke-miterlimit:10;}
	.st1{fill:#FFFFFF;}
</style>
<text transform="matrix(1 0 0 1 -296.4627 13.2668)" class="st1" style="font-family:'Poppins-Bold'; font-size:86.5022px;">W</text>
<line class="st0" x1="-340.2" y1="-49.5" x2="-207.2" y2="-49.5"/>
<text transform="matrix(1 0 0 1 -231.1976 -55.076)" class="st1" style="font-family:'Poppins-ExtraBold'; font-size:35.5123px;">LTON</text>
<polyline class="st1" points="-262.9,-34.5 -250.2,-129.2 -234,0.2 "/>
<text transform="matrix(1 0 0 1 -207.1078 13.8517)" class="st1" style="font-family:'Poppins-ExtraBold'; font-size:76.3651px;">Eb</text>
<rect x="-130.7" y="-52.6" class="st1" width="95.5" height="5.5"/>
<rect x="-41.2" y="-52.1" class="st1" width="6" height="101"/>
<rect x="-340.2" y="42.8" class="st1" width="299" height="6"/>
<rect x="-340.2" y="-48.7" class="st1" width="5" height="97.4"/>
<text transform="matrix(1 0 0 1 -261.1976 28.8151)" class="st1" style="font-family:'Poppins-SemiBold'; font-size:10.9199px;">Creativity Gives You </text>
<text transform="matrix(1 0 0 1 -146.9876 28.8151)" class="st1" style="font-family:'Poppins-ExtraBold'; font-size:10.9199px;">WINGS</text>
<text transform="matrix(0.8718 0 0 1 91.5039 -195.0541)" class="st1" style="font-family:'4MagicDNA'; font-size:113.1533px;">A</text>
<text transform="matrix(0.8718 0 0 1 219.5449 -195.0541)" class="st1" style="font-family:'Poppins-Black'; font-size:113.1533px;">LTON</text>
<path class="st1" d="M96,68c-4.1-6.4-13.4-6.4-17.4,0c-7.8,12.4-15.4,24.6-23.3,36.7c-6.9,10.6-20.9,13-31.4,5.6
	c-10.2-7-12.3-21.2-4.7-31.3c4.7-6.3,9.5-12.6,14.3-18.8c2.1-2.8,5.1-3.4,7.4-1.7c2.4,1.8,2.6,4.6,0.4,7.5
	c-4.6,6.2-9.6,12.2-14.1,18.5c-6,8.2-1.8,18.6,8.2,20.1c5,0.8,9.3-1,12-5.3c10.2-16,20.3-32,30.3-48.1c3.5-5.7,2-12-3.2-16.3
	c-4.6-3.7-11.4-3.6-15.8,0.3c-5,4.4-6,10.8-2.6,16.4c2,3.3,4.2,6.4,6.1,9.7c1.8,3,1.3,5.7-1.1,7.3c-2.3,1.5-5.2,0.8-7-2
	c-2.3-3.5-4.6-7-6.6-10.6c-6.2-10.6-2.8-23.9,7.7-30.3c10.2-6.4,24-3.3,30.5,7c10.1,15.8,20,31.7,29.8,47.6
	c8.3,13.5,1.4,30.1-14.1,33.6c-7.5,1.7-14.7,0.1-20.1-5.7c-3.5-3.8-6.1-8.5-8.9-12.9c-1.5-2.5-0.2-4.6,2-6.1
	c2.5-1.6,4.7-0.7,6.2,1.4c2,2.6,3.6,5.7,5.4,8.4c2.9,4.2,7,6.1,12,5.4c5.4-0.7,9.2-3.7,10.4-9c0.6-2.8,0.2-6.2-0.8-9
	c-1.4-3.5-3.8-6.6-5.8-9.8C99.9,74,98,71,96,68z"/>
<g>
	<path class="st1" d="M189,66.8c0,17.8-12.5,31.5-32.5,31.5h-15.7c-5.7,0-10.3-4.6-10.3-10.3V45.5c0-5.4,4.4-9.8,9.8-9.8h16.2
		C176.4,35.7,189,48.7,189,66.8z M154.7,80.7c8.7,0,14.4-4.9,14.4-14s-5.7-14-14.4-14l0,0c-2.6,0-4.7,2.1-4.7,4.7V76
		C150,78.6,152.1,80.7,154.7,80.7L154.7,80.7z"/>
	<path class="st1" d="M225.2,35.7c15.7,0,23.8,9,23.8,20.5c0,8.2-4.6,15.2-13.5,18.1l7.1,12.6c2.9,5.1-0.8,11.4-6.6,11.4h-8.5
		l-11.8-22.4h-0.1v22.4h-9.4c-5.6,0-10.2-4.6-10.2-10.2V48.5c0-7.1,5.7-12.8,12.8-12.8H225.2z M223.4,52.1h-7.8v10.6l7.8,0
		c3.1,0,5.8-2.5,5.6-5.6C229,54.1,227,52.1,223.4,52.1z"/>
	<path class="st1" d="M285.7,98.8c-17.8,0-32.2-13.3-32.2-32.2c0-18.8,14.5-32.1,32.2-32.1c17.8,0,32.1,13.3,32.1,32.1
		C317.8,85.5,303.4,98.8,285.7,98.8z M285.7,80.5c7.9,0,12.2-5.6,12.2-13.9c0-8.5-4.3-14-12.2-14c-8,0-12.3,5.5-12.3,14
		C273.4,75,277.7,80.5,285.7,80.5z"/>
	<path class="st1" d="M352.3,78.3h-7.8v19.9h-8.7c-6,0-10.9-4.9-10.9-10.9V45.9c0-5.6,4.6-10.2,10.2-10.2h17.2
		c15.7,0,23.8,8.8,23.8,21.5C376,68.7,368,78.3,352.3,78.3z M350,62.9c4.4,0,6.1-2.3,6.1-5.7s-1.7-5.7-6.1-5.7h-5.6v11.5H350z"/>
	<path class="st1" d="M406.7,98.8c-9.4,0-17.5-2.9-22.1-8.8c-3.8-4.8-0.1-11.9,6-11.9h10.6c0.4,4.6,2.8,5.4,4.8,5.4s3.8-0.9,3.8-3.1
		c-0.1-8.5-29.6-5.4-29.2-26.8c0-12.5,10.6-19.1,23.9-19.1c10,0,17.6,3.2,21.8,9.1c3.3,4.7-0.2,11.1-5.9,11.1h-11.7
		c-0.2-3.8-2.2-4.9-4.3-4.9c-1.6,0-2.8,1.1-2.8,3.2c0,7.9,29.1,6.5,29.1,25.8C430.5,90.3,421.8,98.8,406.7,98.8z"/>
</g>
</svg>
