<?xml version="1.0" encoding="utf-8"?>
<!-- Generator: Adobe Illustrator 24.3.0, SVG Export Plug-In . SVG Version: 6.00 Build 0)  -->
<svg version="1.1" id="Layer_1" xmlns="http://www.w3.org/2000/svg" xmlns:xlink="http://www.w3.org/1999/xlink" x="0px" y="0px"
	 viewBox="0 0 212 147.7" style="enable-background:new 0 0 212 147.7;" xml:space="preserve">
<style type="text/css">
	.st0{fill:none;stroke:#FFFFFF;stroke-width:5;stroke-miterlimit:10;}
	.st1{fill:#FFFFFF;}
</style>
<text transform="matrix(1 0 0 1 -296.4627 13.2668)" class="st1" style="font-family:'Poppins-Bold'; font-size:86.5022px;">W</text>
<line class="st0" x1="-340.2" y1="-49.5" x2="-207.2" y2="-49.5"/>
<text transform="matrix(1 0 0 1 -231.1976 -55.076)" class="st1" style="font-family:'Poppins-ExtraBold'; font-size:35.5123px;">LTON</text>
<polyline class="st1" points="-262.9,-34.5 -250.2,-129.2 -234,0.2 "/>
<text transform="matrix(1 0 0 1 -207.1078 13.8517)" class="st1" style="font-family:'Poppins-ExtraBold'; font-size:76.3651px;">Eb</text>
<rect x="-130.7" y="-52.6" class="st1" width="95.5" height="5.5"/>
<rect x="-41.2" y="-52.1" class="st1" width="6" height="101"/>
<rect x="-340.2" y="42.8" class="st1" width="299" height="6"/>
<rect x="-340.2" y="-48.7" class="st1" width="5" height="97.4"/>
<text transform="matrix(1 0 0 1 -261.1976 28.8151)" class="st1" style="font-family:'Poppins-SemiBold'; font-size:10.9199px;">Creativity Gives You </text>
<text transform="matrix(1 0 0 1 -146.9876 28.8151)" class="st1" style="font-family:'Poppins-ExtraBold'; font-size:10.9199px;">WINGS</text>
<text transform="matrix(0.8718 0 0 1 91.5039 -195.0541)" class="st1" style="font-family:'4MagicDNA'; font-size:113.1533px;">A</text>
<text transform="matrix(0.8718 0 0 1 219.5449 -195.0541)" class="st1" style="font-family:'Poppins-Black'; font-size:113.1533px;">LTON</text>
<path class="st1" d="M142.6,72.7c-5.1-8-16.8-8-21.8,0c-9.7,15.5-19.3,30.8-29.1,45.9c-8.6,13.3-26.2,16.2-39.3,7
	c-12.7-8.8-15.4-26.5-5.9-39.1c5.9-7.9,11.9-15.7,17.9-23.5c2.6-3.5,6.4-4.3,9.2-2.1c3,2.2,3.3,5.7,0.5,9.4
	C68.3,78,62.1,85.6,56.5,93.4c-7.5,10.3-2.3,23.2,10.2,25.2c6.2,1,11.6-1.3,15-6.6c12.7-20,25.4-40,37.9-60.1c4.4-7.1,2.5-15-4-20.4
	c-5.7-4.6-14.3-4.5-19.7,0.4c-6.2,5.5-7.5,13.5-3.2,20.5c2.5,4.1,5.2,8,7.6,12.1c2.2,3.7,1.6,7.1-1.4,9.1c-2.9,1.9-6.5,1-8.8-2.5
	c-2.9-4.4-5.7-8.8-8.3-13.2c-7.7-13.3-3.5-29.9,9.6-37.9c12.8-8,30-4.1,38.1,8.7c12.6,19.7,25,39.6,37.3,59.5
	c10.4,16.9,1.7,37.6-17.6,42c-9.4,2.1-18.4,0.1-25.1-7.1c-4.4-4.7-7.6-10.6-11.1-16.1c-1.9-3.1-0.2-5.8,2.5-7.6
	c3.1-2,5.9-0.9,7.8,1.8c2.5,3.3,4.5,7.1,6.8,10.5c3.6,5.3,8.8,7.6,15,6.8c6.7-0.9,11.5-4.6,13-11.2c0.7-3.5,0.3-7.8-1-11.2
	c-1.7-4.4-4.8-8.2-7.3-12.3C147.4,80.2,145,76.4,142.6,72.7z"/>
</svg>
