<?xml version="1.0" encoding="utf-8"?>
<!-- Generator: Adobe Illustrator 24.3.0, SVG Export Plug-In . SVG Version: 6.00 Build 0)  -->
<svg version="1.1" id="Layer_1" xmlns="http://www.w3.org/2000/svg" xmlns:xlink="http://www.w3.org/1999/xlink" x="0px" y="0px"
	 viewBox="0 0 616.5 202.9" style="enable-background:new 0 0 616.5 202.9;" xml:space="preserve">
<style type="text/css">
	.st0{fill:#FFFFFF;}
</style>
<g>
	<g>
		<path class="st0" d="M151.1,111.4c-6.4-10.1-21.1-10-27.4,0c-12.2,19.5-24.3,38.7-36.6,57.7c-10.8,16.7-32.9,20.3-49.4,8.8
			c-15.9-11.1-19.3-33.3-7.4-49.1c7.4-9.9,15-19.7,22.5-29.5c3.3-4.4,8-5.4,11.6-2.7c3.8,2.8,4.1,7.1,0.6,11.8
			c-7.3,9.7-15,19.2-22.1,29c-9.4,12.9-2.9,29.1,12.8,31.6c7.8,1.3,14.6-1.6,18.9-8.3c16-25.1,31.9-50.2,47.6-75.5
			c5.5-8.9,3.2-18.9-5-25.6c-7.1-5.8-17.9-5.6-24.8,0.5c-7.8,6.9-9.4,16.9-4,25.8c3.1,5.1,6.5,10.1,9.5,15.2c2.8,4.6,2,8.9-1.7,11.4
			c-3.6,2.4-8.2,1.2-11-3.1c-3.6-5.5-7.2-11-10.4-16.6c-9.7-16.7-4.4-37.6,12-47.6c16.1-10,37.7-5.2,47.9,10.9
			c15.8,24.8,31.4,49.7,46.8,74.7c13,21.2,2.1,47.2-22.1,52.8c-11.8,2.7-23.1,0.1-31.5-8.9c-5.5-5.9-9.6-13.3-13.9-20.2
			c-2.4-3.9-0.3-7.3,3.2-9.5c3.9-2.5,7.4-1.1,9.8,2.3c3.1,4.2,5.6,8.9,8.6,13.2c4.5,6.6,11,9.6,18.9,8.5c8.4-1.1,14.5-5.8,16.3-14.1
			c0.9-4.4,0.4-9.8-1.3-14.1c-2.1-5.5-6-10.3-9.2-15.4C157.1,120.8,154.1,116.1,151.1,111.4z"/>
		<g>
			<path class="st0" d="M239.9,86.3c11.4,0,19.3,5,23.4,12.1V87.3h27.8v79.6h-27.8v-11.1c-4.1,7.1-12.2,12.1-23.4,12.1
				c-18.9,0-33.9-15.5-33.9-40.9C206,101.6,221.1,86.3,239.9,86.3z M248.9,110.5c-7.9,0-14.5,5.7-14.5,16.5
				c0,10.6,6.5,16.6,14.5,16.6c7.8,0,14.5-5.8,14.5-16.6C263.4,116.4,256.7,110.5,248.9,110.5z"/>
			<path class="st0" d="M307.1,61.9h17.4c5.8,0,10.4,4.7,10.4,10.4v94.6h-14.2c-7.5,0-13.6-6.1-13.6-13.6V61.9z"/>
			<path class="st0" d="M355.2,110.4h-9.8V87.3h9.8v-8.1c0-6.2,5-11.2,11.2-11.2h16.8v19.3h5.4c5,0,9.1,4.1,9.1,9.1v14h-14.5v26.7
				c0,4.3,1.8,6.1,6.5,6.1h8.1v11.6c0,6.7-5.4,12.1-12.1,12.1h0c-17.6,0-30.5-7.4-30.5-30.2V110.4z"/>
			<path class="st0" d="M447.5,167.9c-23.7,0-41.6-15.5-41.6-40.9c0-25.3,18-40.7,41.7-40.7c23.7,0,41.7,15.5,41.7,40.7
				C489.4,152.4,471.2,167.9,447.5,167.9z M447.5,143.7c7.1,0,13.6-5.2,13.6-16.7c0-11.4-6.4-16.6-13.5-16.6
				c-7.1,0-13.3,5.2-13.3,16.6C434.3,138.5,440.3,143.7,447.5,143.7z"/>
			<path class="st0" d="M554.9,124.2c0-9.2-5.1-14.6-13.1-14.6c-8.2,0-13.3,5.4-13.3,14.6v24c0,10.3-8.4,18.7-18.7,18.7h-9.1V90.4
				c0-1.7,1.4-3.1,3.1-3.1h21.5c1.7,0,3.1,1.4,3.1,3.1v0.2c0,2.7,3.1,4.1,5.2,2.4c4.8-3.9,11.2-6.5,19.1-6.5
				c18.4,0,29.9,13.1,29.9,33.9v21.7c0,13.6-11,24.7-24.7,24.7l0,0c-1.7,0-3.1-1.4-3.1-3.1V124.2z"/>
		</g>
	</g>
	<path class="st0" d="M462,58.6C421,43.2,351.1,28,271.8,58c-5.5,2.1-9.3-5.7-4.2-8.7C312.1,23.2,386.7-2.2,466.3,50
		C471.2,53.2,467.4,60.6,462,58.6z"/>
</g>
</svg>
