<?xml version="1.0" encoding="utf-8"?>
<!-- Generator: Adobe Illustrator 24.3.0, SVG Export Plug-In . SVG Version: 6.00 Build 0)  -->
<svg version="1.1" xmlns="http://www.w3.org/2000/svg" xmlns:xlink="http://www.w3.org/1999/xlink" x="0px" y="0px"
	 viewBox="0 0 2200 2200" style="enable-background:new 0 0 2200 2200;" xml:space="preserve">
<style type="text/css">
	.st0{fill:url(#SVGID_1_);}
	.st1{fill:url(#SVGID_2_);}
	.st2{opacity:0.1;fill:#131E2E;}
	.st3{fill:url(#SVGID_3_);}
	.st4{fill:url(#SVGID_4_);}
	.st5{fill:url(#SVGID_5_);}
	.st6{fill:url(#SVGID_6_);}
	.st7{fill:url(#SVGID_7_);}
	.st8{fill:url(#SVGID_8_);}
	.st9{fill:url(#SVGID_9_);}
	.st10{fill:url(#SVGID_10_);}
	.st11{opacity:0.76;fill:#131E2E;}
	.st12{fill:url(#SVGID_11_);}
	.st13{fill:url(#SVGID_12_);}
	.st14{fill:url(#SVGID_13_);}
	.st15{fill:url(#SVGID_14_);}
	.st16{opacity:0.63;fill:url(#SVGID_15_);}
	.st17{fill:#662483;}
</style>
<g id="background">
</g>
<g id="Objects">
	<g>
		<g>
			
				<linearGradient id="SVGID_1_" gradientUnits="userSpaceOnUse" x1="599.3802" y1="1229.3865" x2="814.3781" y2="1229.3865" gradientTransform="matrix(-0.9931 0.1175 0.1175 0.9931 2027.5609 -54.2997)">
				<stop  offset="0" style="stop-color:#E6E6E6"/>
				<stop  offset="1" style="stop-color:#A5B0B5"/>
			</linearGradient>
			<path class="st0" d="M1309.2,1155.7c27.9,172.6,155.1,311.8,210.6,365.2c60.2,58,125.3,48.2,131.4-69.3
				c4.7-90.7-10.2-193.9-39.4-286.2c-25.6-80.9-68.8-157.8-130.1-206.9c-15.3-12.3-33.2-19.7-51.7-21.8
				c-47.3-5.2-91.2,25.7-107.9,76C1307.2,1057.4,1301.5,1107.9,1309.2,1155.7z"/>
			<linearGradient id="SVGID_2_" gradientUnits="userSpaceOnUse" x1="562.3381" y1="1245.7925" x2="798.6394" y2="1245.7925">
				<stop  offset="0" style="stop-color:#E6E6E6"/>
				<stop  offset="1" style="stop-color:#A5B0B5"/>
			</linearGradient>
			<path class="st1" d="M840.7,1155.7c-9.5,58.8-30.5,113.7-56.3,162.7c-2.5,4.7-5,9.3-7.5,13.9c-49,88-112,155.2-146.8,188.7
				c-60.2,58-125.3,48.2-131.4-69.3c-4.7-90.7,10.2-193.9,39.4-286.2c1.1-3.5,2.2-6.9,3.4-10.4c1.9-5.8,4-11.5,6.1-17.2
				c26.2-70.5,66.3-135.8,120.6-179.2c15.3-12.3,33.2-19.7,51.7-21.8c47.3-5.2,91.2,25.7,107.9,76
				C842.7,1057.4,848.4,1107.9,840.7,1155.7z"/>
			<path class="st2" d="M784.4,1318.3c-2.5,4.7-5,9.3-7.5,13.9c-92.9-35-171.6-94.3-235.4-177.2c1.9-5.8,4-11.5,6.1-17.2
				c35.4,47.5,75.8,87.5,120.5,119.3C703.8,1282.4,742.7,1302.8,784.4,1318.3z"/>
			<path class="st2" d="M1365.5,1318.3c2.5,4.7,5,9.3,7.5,13.9c92.9-35,171.6-94.3,235.4-177.2c-1.9-5.8-4-11.5-6.1-17.2
				c-35.4,47.5-75.8,87.5-120.5,119.3C1446.1,1282.4,1407.3,1302.8,1365.5,1318.3z"/>
			<linearGradient id="SVGID_3_" gradientUnits="userSpaceOnUse" x1="1078.2742" y1="1289.0878" x2="1078.2742" y2="953.8669">
				<stop  offset="0" style="stop-color:#E6E6E6"/>
				<stop  offset="1" style="stop-color:#A5B0B5"/>
			</linearGradient>
			<path class="st3" d="M1466.9,1178c0,61.6-9,124.8-25.3,185.7c-193.7,177.3-497,171.1-726.5-0.2c-16.3-60.8-25.3-124-25.3-185.5
				c0-271.5,174-316.1,388.6-316.1C1292.9,861.9,1466.9,906.5,1466.9,1178z"/>
			<linearGradient id="SVGID_4_" gradientUnits="userSpaceOnUse" x1="1078.2516" y1="1559.7578" x2="1078.2516" y2="1164.1534">
				<stop  offset="0" style="stop-color:#E6E6E6"/>
				<stop  offset="1" style="stop-color:#A5B0B5"/>
			</linearGradient>
			<path class="st4" d="M1441.5,1363.7c-55.8,207.3-197.4,387.7-363.2,387.7c-165.9,0-307.6-180.5-363.3-387.9
				c8.5-0.4,16.9-1.1,25.3-2.3c63.7-9.1,124-42.2,167.2-92c28-32.3,48.8-70.9,78-102c0.2-0.3,0.5-0.5,0.7-0.8
				c48.9-51.5,128.9-51.5,177.8,0c0.2,0.3,0.5,0.5,0.7,0.8c29.2,31.1,50,69.7,78,102c43.2,49.7,103.5,82.9,167.2,92
				C1420.5,1362.7,1431,1363.5,1441.5,1363.7z"/>
			<linearGradient id="SVGID_5_" gradientUnits="userSpaceOnUse" x1="528.3559" y1="612.5784" x2="632.6805" y2="612.5784">
				<stop  offset="0" style="stop-color:#E6E6E6"/>
				<stop  offset="1" style="stop-color:#A5B0B5"/>
			</linearGradient>
			<path class="st5" d="M632.7,727c-57.6,0-104.3-51.2-104.3-114.4s46.7-114.4,104.3-114.4V727z"/>
			<linearGradient id="SVGID_6_" gradientUnits="userSpaceOnUse" x1="1517.7046" y1="612.5784" x2="1622.0293" y2="612.5784">
				<stop  offset="0" style="stop-color:#E6E6E6"/>
				<stop  offset="1" style="stop-color:#A5B0B5"/>
			</linearGradient>
			<path class="st6" d="M1517.7,727c57.6,0,104.3-51.2,104.3-114.4s-46.7-114.4-104.3-114.4V727z"/>
			<linearGradient id="SVGID_7_" gradientUnits="userSpaceOnUse" x1="604.3362" y1="612.5784" x2="1545.5862" y2="612.5784">
				<stop  offset="0" style="stop-color:#E6E6E6"/>
				<stop  offset="1" style="stop-color:#A5B0B5"/>
			</linearGradient>
			<path class="st7" d="M1545.6,635c0,239.2-210.7,299.1-470.6,299.1c-259.9,0-470.6-59.9-470.6-299.1v-44.9
				C604.3,350.9,815,291,1075,291s470.6,59.9,470.6,299.1V635z"/>
			<linearGradient id="SVGID_8_" gradientUnits="userSpaceOnUse" x1="1075.1925" y1="511.7458" x2="1075.1925" y2="806.565">
				<stop  offset="0" style="stop-color:#304059"/>
				<stop  offset="1" style="stop-color:#131E2E"/>
			</linearGradient>
			<path class="st8" d="M1449.5,662.3c0,132.7-167.6,165.9-374.3,165.9S700.9,795,700.9,662.3l0-24.9
				c0-132.7,167.6-165.9,374.3-165.9s374.3,33.2,374.3,165.9L1449.5,662.3z"/>
			
				<radialGradient id="SVGID_9_" cx="913.162" cy="651.9973" r="83.4276" gradientTransform="matrix(0.9584 0 0 0.5276 20.7076 308.0206)" gradientUnits="userSpaceOnUse">
				<stop  offset="0" style="stop-color:#82FFF8"/>
				<stop  offset="1" style="stop-color:#5792AD"/>
			</radialGradient>
			<path class="st9" d="M973.8,675.6c2.3,9.4-6,17.9-14.9,15.4c-20.6-5.6-41.8-8.5-63-8.5s-42.3,2.8-63,8.5c-9,2.5-17.2-6-14.9-15.4
				c8.9-36.2,40.4-63,77.9-63S964.9,639.4,973.8,675.6z"/>
			
				<radialGradient id="SVGID_10_" cx="912.6323" cy="651.9973" r="83.4276" gradientTransform="matrix(-0.9584 0 0 0.5276 2129.1699 308.0206)" gradientUnits="userSpaceOnUse">
				<stop  offset="0" style="stop-color:#82FFF8"/>
				<stop  offset="1" style="stop-color:#5792AD"/>
			</radialGradient>
			<path class="st10" d="M1176.6,675.6c-2.3,9.4,6,17.9,14.9,15.4c20.6-5.6,41.8-8.5,63-8.5s42.3,2.8,63,8.5c9,2.5,17.2-6,14.9-15.4
				c-8.9-36.2-40.4-63-77.9-63S1185.5,639.4,1176.6,675.6z"/>
			<path class="st11" d="M1449.5,637.4v24.9c0,1.5,0,2.9-0.1,4.4c-3.7-129-169.8-161.5-374.2-161.5c-204.4,0-370.5,32.5-374.2,161.5
				c0-1.5-0.1-2.9-0.1-4.4v-24.9c0-132.7,167.6-165.9,374.3-165.9C1281.9,471.5,1449.5,504.7,1449.5,637.4z"/>
			<g>
				
					<radialGradient id="SVGID_11_" cx="1100.0006" cy="385.7092" r="258.4856" gradientTransform="matrix(0.9584 0 0 0.3535 20.7076 249.3473)" gradientUnits="userSpaceOnUse">
					<stop  offset="0" style="stop-color:#82FFF8"/>
					<stop  offset="1" style="stop-color:#5792AD"/>
				</radialGradient>
				<path class="st12" d="M1284.9,309.1c-22.5,22.6-37.3,53.1-44.2,92.4c-2.2,12.4-12.7,21.3-24.8,21.3H934.1
					c-12.1,0-22.6-8.9-24.8-21.3c-6.9-39.3-21.8-69.8-44.2-92.4C928.2,296,999.5,291,1075,291C1150.4,291,1221.7,296,1284.9,309.1z"
					/>
			</g>
			<g>
				<linearGradient id="SVGID_12_" gradientUnits="userSpaceOnUse" x1="1074.9613" y1="318.5585" x2="1074.9613" y2="420.8394">
					<stop  offset="0" style="stop-color:#5792AD;stop-opacity:0"/>
					<stop  offset="1" style="stop-color:#5792AD"/>
				</linearGradient>
				<path class="st13" d="M1284.9,309.1c-22.5,22.6-37.3,53.1-44.2,92.4c-2.2,12.4-12.7,21.3-24.8,21.3H934.1
					c-12.1,0-22.6-8.9-24.8-21.3c-6.9-39.3-21.8-69.8-44.2-92.4c30.3,18.8,48,34.7,54.5,71.6c2,11.6,11.9,20,23.2,20h264.4
					c11.3,0,21.2-8.4,23.2-20C1236.9,343.8,1255.3,319.1,1284.9,309.1z"/>
			</g>
			<g>
				<linearGradient id="SVGID_13_" gradientUnits="userSpaceOnUse" x1="1004.6226" y1="1247.5741" x2="1145.8314" y2="1380.6362">
					<stop  offset="0" style="stop-color:#E6E6E6"/>
					<stop  offset="0.195" style="stop-color:#A5B0B5"/>
					<stop  offset="0.3663" style="stop-color:#CCD1D3"/>
					<stop  offset="0.571" style="stop-color:#B5BEC2"/>
					<stop  offset="0.7445" style="stop-color:#FFFFFF"/>
					<stop  offset="1" style="stop-color:#A5B0B5"/>
				</linearGradient>
				<ellipse class="st14" cx="1075.2" cy="1314.1" rx="101" ry="105.4"/>
				
					<radialGradient id="SVGID_14_" cx="1100.2419" cy="1314.0728" r="85.3024" gradientTransform="matrix(0.9584 0 0 1.0029 20.7076 -3.8528)" gradientUnits="userSpaceOnUse">
					<stop  offset="0" style="stop-color:#82FFF8"/>
					<stop  offset="1" style="stop-color:#5792AD"/>
				</radialGradient>
				<ellipse class="st15" cx="1075.2" cy="1314.1" rx="80.8" ry="84.3"/>
				<path class="st2" d="M1156,1314.1c0,2.7-0.1,5.4-0.4,8c-3.9-42.8-38.4-76.3-80.4-76.3c-42,0-76.6,33.5-80.4,76.3
					c-0.2-2.6-0.4-5.3-0.4-8c0-46.6,36.2-84.3,80.8-84.3C1119.8,1229.8,1156,1267.5,1156,1314.1z"/>
			</g>
		</g>
		
			<radialGradient id="SVGID_15_" cx="1100.2614" cy="1899.8851" r="256.571" gradientTransform="matrix(0.9584 0 0 0.1608 20.7076 1594.3372)" gradientUnits="userSpaceOnUse">
			<stop  offset="0" style="stop-color:#000000;stop-opacity:0.3"/>
			<stop  offset="0.9239" style="stop-color:#000000;stop-opacity:0"/>
		</radialGradient>
		<ellipse class="st16" cx="1075.2" cy="1899.9" rx="257.5" ry="49.1"/>
	</g>
	<g>
		<path class="st17" d="M990.2,1556.9h-17.9l-2.7,8.1H952l19.6-53.7h19.4l19.6,53.7h-17.7L990.2,1556.9z M981.3,1529.3l-4.9,14.9
			h9.7L981.3,1529.3z"/>
		<path class="st17" d="M1031.3,1511.3v41h16.2v12.7h-33.1v-53.7H1031.3z"/>
		<path class="st17" d="M1049.8,1511.3h45.2v13.4h-14.3v40.4h-16.8v-40.4h-14.1V1511.3z"/>
		<path class="st17" d="M1125.7,1565.5c-15.2,0-27.7-11.5-27.7-27.6s12.4-27.5,27.7-27.5c15.3,0,27.5,11.4,27.5,27.5
			S1140.9,1565.5,1125.7,1565.5z M1125.7,1549.8c6.8,0,10.5-4.8,10.5-11.9c0-7.3-3.7-12-10.5-12c-6.9,0-10.5,4.7-10.5,12
			C1115.1,1545.1,1118.8,1549.8,1125.7,1549.8z"/>
		<path class="st17" d="M1210.8,1511.3v53.7H1194l-17.8-27v27h-16.8v-53.7h16.8l17.8,27.5v-27.5H1210.8z"/>
	</g>
</g>
</svg>
