<?xml version="1.0" encoding="utf-8"?>
<!-- Generator: Adobe Illustrator 24.3.0, SVG Export Plug-In . SVG Version: 6.00 Build 0)  -->
<svg version="1.1" id="Layer_1" xmlns="http://www.w3.org/2000/svg" xmlns:xlink="http://www.w3.org/1999/xlink" x="0px" y="0px"
	 viewBox="0 0 283.5 283.5" style="enable-background:new 0 0 283.5 283.5;" xml:space="preserve">
<style type="text/css">
	.st0{fill:#BBBFC0;}
</style>
<image style="overflow:visible;" width="500" height="500" xlink:href="C:\Users\Loy\Downloads\4bc39ce850966470d25029a20f2c8cc1-removebg-preview.png"  transform="matrix(0.552 0 0 0.552 4.0945 2.7874)">
</image>
<rect x="176.1" y="165.8" class="st0" width="23" height="23"/>
<path d="M194.2,176.2c-0.8-1.2-2.5-1.2-3.2,0c-1.4,2.3-2.8,4.5-4.3,6.8c-1.3,2-3.9,2.4-5.8,1c-1.9-1.3-2.3-3.9-0.9-5.8
	c0.9-1.2,1.8-2.3,2.6-3.5c0.4-0.5,0.9-0.6,1.4-0.3c0.4,0.3,0.5,0.8,0.1,1.4c-0.9,1.1-1.8,2.3-2.6,3.4c-1.1,1.5-0.3,3.4,1.5,3.7
	c0.9,0.1,1.7-0.2,2.2-1c1.9-3,3.8-5.9,5.6-8.9c0.6-1,0.4-2.2-0.6-3c-0.8-0.7-2.1-0.7-2.9,0.1c-0.9,0.8-1.1,2-0.5,3
	c0.4,0.6,0.8,1.2,1.1,1.8c0.3,0.5,0.2,1-0.2,1.3c-0.4,0.3-1,0.1-1.3-0.4c-0.4-0.6-0.8-1.3-1.2-1.9c-1.1-2-0.5-4.4,1.4-5.6
	c1.9-1.2,4.4-0.6,5.6,1.3c1.9,2.9,3.7,5.8,5.5,8.8c1.5,2.5,0.3,5.6-2.6,6.2c-1.4,0.3-2.7,0-3.7-1c-0.6-0.7-1.1-1.6-1.6-2.4
	c-0.3-0.5,0-0.9,0.4-1.1c0.5-0.3,0.9-0.1,1.2,0.3c0.4,0.5,0.7,1,1,1.6c0.5,0.8,1.3,1.1,2.2,1c1-0.1,1.7-0.7,1.9-1.7
	c0.1-0.5,0-1.2-0.1-1.7c-0.3-0.6-0.7-1.2-1.1-1.8C194.9,177.3,194.5,176.7,194.2,176.2z"/>
</svg>
